<?xml version="1.0" encoding="utf-8"?>
<!-- Generator: Adobe Illustrator 23.0.3, SVG Export Plug-In . SVG Version: 6.00 Build 0)  -->
<svg version="1.1" xmlns="http://www.w3.org/2000/svg" xmlns:xlink="http://www.w3.org/1999/xlink" x="0px" y="0px"
	 viewBox="0 0 673.29 125.06" style="enable-background:new 0 0 673.29 125.06;" xml:space="preserve">
<style type="text/css">
	.st0{fill:none;stroke:#69C2E8;stroke-width:4;stroke-linecap:round;stroke-linejoin:round;stroke-miterlimit:10;}
	.st1{fill:none;stroke:#B2B1B2;stroke-width:4;stroke-linecap:round;stroke-linejoin:round;stroke-miterlimit:10;}
	.st2{fill:none;stroke:#B2B1B2;stroke-width:4;stroke-linecap:round;stroke-miterlimit:10;}
	.st3{fill:none;stroke:#5CBA47;stroke-width:4;stroke-linecap:round;stroke-linejoin:round;stroke-miterlimit:10;}
	.st4{fill:#FFFFFF;stroke:#69C2E8;stroke-width:4;stroke-linecap:round;stroke-linejoin:round;stroke-miterlimit:10;}
	.st5{fill:none;stroke:#5CBA47;stroke-width:4;stroke-linecap:round;stroke-miterlimit:10;}
	.st6{fill:none;stroke:#69C2E8;stroke-width:4;stroke-linecap:round;stroke-miterlimit:10;}
	.st7{fill:none;stroke:#3BB54A;stroke-width:4;stroke-linecap:round;stroke-linejoin:round;stroke-miterlimit:10;}
	.st8{fill:none;}
	.st9{fill:#FFFFFF;}
	.st10{font-family:'Montserrat-SemiBold';}
	.st11{font-size:77.3461px;}
	.st12{fill:#6AC2E8;}
</style>
<g id="Calque_2">
	<path class="st0" d="M35,19.59c-0.06,1.8-0.13,3.61-0.19,5.41"/>
	<line class="st0" x1="74.6" y1="20.27" x2="74.92" y2="25.01"/>
	<path class="st1" d="M55.74,121.32c-35.32-0.2-51.79-31.06-45-48.93"/>
	<path class="st2" d="M16.46,101.63c-1.15-0.62,8.66-23.79,34.36-25.21"/>
	<path class="st0" d="M56.38,82.11c-2.5-3.7-4.77-7.1-7.26-10.8c1.97-1.75,5.47-4.82,7.44-6.57"/>
	<path class="st3" d="M64.97,70.11"/>
	<ellipse class="st2" cx="29.54" cy="55.46" rx="20.36" ry="17.6"/>
	<path class="st4" d="M19.83,48.9c10.61-8.26,19.64,1.11,19.64,6.6c0,5.49-4.72,9.47-11.07,9.47c-6.19,0-11.03-3.68-11.28-8.98"/>
	<path class="st5" d="M28.6,45.65"/>
	<path class="st5" d="M32.53,56.82"/>
	<path class="st6" d="M28.1,52.03c0,0,4.78-0.66,4.72,3.33"/>
	<path class="st1" d="M56.4,121.37c35.07-0.18,57.3-31.93,43.32-55.32"/>
	<path class="st2" d="M96.58,100.81c1.49,3.79-8.76-23.06-34.1-24.79"/>
	<path class="st0" d="M56.7,82.01c2.5-3.7,5-7.4,7.5-11.1c-1.97-1.75-5.05-4.42-7.02-6.16"/>
	<path class="st3" d="M48.34,70.51"/>
	<ellipse class="st2" cx="83.77" cy="55.05" rx="20.36" ry="17.6"/>
	<path class="st6" d="M93.49,48.5c-10.61-8.26-19.64,1.11-19.64,6.6s4.72,9.47,11.07,9.47c6.19,0,11.03-3.68,11.28-8.98"/>
	<path class="st5" d="M84.71,45.24"/>
	<path class="st5" d="M80.78,56.41"/>
	<path class="st6" d="M85.25,51.05c0,0,4.77-0.7,4.77,3.28"/>
	<path class="st3" d="M58.89,66.69"/>
	<path class="st1" d="M8.5,37.29c0,0-8.08-16.93-3.88-15.45s8.7,6.03,22.38,5.51c17.71-0.67,27.81,6.75,27.81,6.75"/>
	<path class="st1" d="M101.97,36.66c0,0,8.08-16.93,3.88-15.45c-4.2,1.48-8.7,6.03-22.38,5.51C65.76,26.04,55,34.11,55,34.11"/>
	<path class="st0" d="M29.21,120.78c-1.35-2.46-2.69-4.93-4.04-7.39"/>
	<path class="st0" d="M17.33,120.07c-1.35-2.46-2.69-4.93-4.04-7.39"/>
	<path class="st0" d="M22.94,119.99c-1.35-2.46-2.69-4.93-4.04-7.39"/>
	<path class="st0" d="M94.63,114.22c-1.35,2.46-2.69,4.93-4.04,7.39"/>
	<path class="st0" d="M82.75,114.93c-1.35,2.46-2.69,4.93-4.04,7.39"/>
	<path class="st0" d="M88.36,115.01c-1.35,2.46-2.69,4.93-4.04,7.39"/>
	<polyline class="st0" points="34.89,19.83 21.86,13.44 53.95,3.03 87.75,13.71 74.63,20.37 	"/>
	<path class="st0" d="M35.03,19.89c0,0,19.58-7.06,39.39,0.4"/>
	<path class="st0" d="M33.48,16.5"/>
	<path class="st7" d="M33.79,25.44"/>
	<path class="st7" d="M34.1,25.77"/>
	<path class="st7" d="M74.97,25.77"/>
	<path class="st0" d="M33.87,16.23"/>
</g>
<g id="Calque_5">
	<rect x="124.94" y="36.22" class="st8" width="498.82" height="109.19"/>
	<text transform="matrix(0.9231 0 0 1 124.9413 93.6085)" class="st9 st10 st11">QUICKM   RK</text>
	<g>
		<path class="st12" d="M467.88,30.36c-2.47-0.44-4.92,1.05-6.63,3.03c-2.81,3.24-4.13,7.99-3.2,12.32
			c0.93,4.33,4.18,8.04,8.18,9.02c4,0.98,8.53-0.98,10.62-4.8c0.58-1.07,0.98-2.24,1.27-3.43c0.65-2.62,0.84-5.42,0.22-8.05
			c-0.62-2.63-2.09-5.08-4.24-6.48c-1.91-1.25-4.2-1.6-6.43-1.71"/>
		<g>
			<path class="st9" d="M467.88,28.74c-15.66-0.48-15.33,28.24,0.78,27.86c6.95-0.16,10.79-6.22,11.52-12.5
				c1.01-8.75-3.84-14.75-12.5-15.46c-2.08-0.17-2.07,3.08,0,3.25c6.62,0.54,9.82,5.08,9.35,11.4c-0.35,4.78-2.96,9.84-8.37,10.06
				c-11.83,0.48-12.39-21.71-0.78-21.36C469.97,32.05,469.97,28.8,467.88,28.74L467.88,28.74z"/>
		</g>
	</g>
	<g>
		<path class="st12" d="M457.15,47.51c-1.88,3.37-2.92,7.2-3.95,10.98c-1.64,6.04-3.28,12.09-4.92,18.13
			c-3.14,11.58-6.3,23.26-7.08,35.3c0.71-2.88,2.46-5.29,3.95-7.8c4.34-7.32,6.57-15.82,9.45-23.94c3.1-8.72,7-17.11,11.62-24.99"/>
		<g>
			<path class="st9" d="M455.75,46.69c-4.91,9.55-6.74,21.01-9.53,31.33c-3.01,11.16-5.77,22.35-6.64,33.9
				c-0.14,1.89,2.67,2.12,3.19,0.43c1.41-4.54,4.56-8.38,6.51-12.71c1.95-4.32,3.45-8.81,4.95-13.3
				c3.53-10.57,7.83-20.68,13.41-30.33c1.05-1.81-1.76-3.45-2.81-1.64c-5.42,9.38-9.74,19.2-13.19,29.46
				c-1.78,5.3-3.44,10.67-5.89,15.71c-1.96,4.05-4.77,7.61-6.11,11.94c1.06,0.14,2.13,0.29,3.19,0.43
				c0.85-11.26,3.59-22.17,6.53-33.04c2.7-10.01,4.44-21.3,9.2-30.55C459.51,46.47,456.7,44.83,455.75,46.69L455.75,46.69z"/>
		</g>
	</g>
	<g>
		<path class="st12" d="M475.76,48.52c6.67,20.72,13.04,41.63,16.96,63.15c-4.3-5.08-7.42-11.18-10.28-17.33
			c-1.31-2.83-2.58-5.69-3.54-8.69c-0.64-1.98-1.13-4.01-1.65-6.04c-2.06-8.05-4.53-16.16-9.14-22.85"/>
		<g>
			<path class="st9" d="M474.2,48.96c6.67,20.77,12.97,41.68,16.96,63.15c0.91-0.53,1.81-1.05,2.72-1.58
				c-6.7-8.23-11.78-18.84-14.47-29.06c-2.35-8.92-4.75-17.73-9.89-25.51c-1.15-1.74-3.96-0.11-2.81,1.64
				c6,9.08,7.49,19.31,10.93,29.39c3.13,9.16,7.82,18.34,13.94,25.84c1.12,1.38,2.98-0.16,2.72-1.58
				C490.3,89.77,484,68.87,477.33,48.09C476.69,46.11,473.55,46.96,474.2,48.96L474.2,48.96z"/>
		</g>
	</g>
	<g>
		<path class="st12" d="M466.54,70.72c-0.58-0.53-1.54-0.22-2,0.43c-0.47,0.65-0.57,1.52-0.65,2.34c-0.33,3.61-0.35,7.25-0.28,10.88
			c0.02,1.05,0.18,2.33,1.08,2.74c0.35,0.16,0.74,0.15,1.12,0.13c0.21-0.01,0.43-0.02,0.62-0.14c0.25-0.16,0.37-0.47,0.48-0.76
			c1.23-3.31,2.48-6.78,2.19-10.33c-0.14-1.73-0.65-3.43-1.48-4.92"/>
		<g>
			<path class="st9" d="M466.97,69.15c-3.71-1.48-4.6,2.89-4.81,5.54c-0.22,2.81-0.26,5.65-0.21,8.46c0.04,1.67-0.06,3.66,1.3,4.87
				c3.48,3.08,5.35-1.47,6.2-4.05c1.54-4.71,1.82-9.2-0.45-13.71c-0.94-1.87-3.74-0.23-2.81,1.64c1.02,2.04,1.45,4.18,1.24,6.45
				c-0.08,0.85-1.3,6.56-1.96,6.22c-0.81-0.42-0.28-4.77-0.26-5.66c0.01-0.49,0.23-6.89,0.88-6.63
				C468.05,73.06,468.89,69.91,466.97,69.15L466.97,69.15z"/>
		</g>
	</g>
	<g>
		<path class="st9" d="M456.78,79.43c1.62,0.01,3.24,0.13,4.85,0.38"/>
		<g>
			<path class="st9" d="M456.78,81.06c1.48,0.01,2.95,0.1,4.42,0.32c0.87,0.13,1.75-0.22,2-1.13c0.21-0.77-0.26-1.87-1.13-2
				c-1.75-0.26-3.51-0.42-5.28-0.44C454.68,77.79,454.68,81.04,456.78,81.06L456.78,81.06z"/>
		</g>
	</g>
	<g>
		<path class="st9" d="M470.22,79.57c1.33-0.19,2.66-0.28,4-0.27"/>
		<g>
			<path class="st9" d="M470.22,81.2c1.33-0.18,2.66-0.27,4-0.27c2.09,0,2.09-3.25,0-3.25c-1.34,0-2.67,0.09-4,0.27
				c-0.87,0.12-1.63,0.66-1.63,1.63C468.6,80.36,469.35,81.31,470.22,81.2L470.22,81.2z"/>
		</g>
	</g>
	<g>
		<path class="st9" d="M485.25,77.95c2.21,0.25,4.44,0.35,6.66,0.31"/>
		<g>
			<path class="st9" d="M485.25,79.58c2.21,0.24,4.43,0.34,6.66,0.31c2.09-0.03,2.1-3.28,0-3.25c-2.23,0.03-4.44-0.07-6.66-0.31
				C483.18,76.1,483.19,79.35,485.25,79.58L485.25,79.58z"/>
		</g>
	</g>
	<g>
		<path class="st9" d="M447.32,78.98c-1.94-0.31-3.87-0.63-5.81-0.94"/>
		<g>
			<path class="st9" d="M447.75,77.41c-1.94-0.31-3.87-0.63-5.81-0.94c-0.87-0.14-1.74,0.23-2,1.13c-0.22,0.77,0.27,1.86,1.13,2
				c1.94,0.31,3.87,0.63,5.81,0.94c0.87,0.14,1.74-0.23,2-1.13C449.11,78.64,448.61,77.55,447.75,77.41L447.75,77.41z"/>
		</g>
	</g>
	<g>
		<path class="st12" d="M463.52,21.94c2.57,0.66,5.24,0.91,7.88,0.74c0.45-0.03,0.92-0.08,1.29-0.35c0.49-0.36,0.7-1.06,0.7-1.7
			s-0.19-1.27-0.32-1.9c-0.69-3.23-0.13-6.61-0.38-9.92c-0.02-0.2-0.04-0.42-0.15-0.58c-0.13-0.19-0.36-0.27-0.57-0.34
			c-1.73-0.52-3.53-0.66-5.32-0.8c-0.93-0.07-2.07-0.02-2.5,0.87c-0.17,0.35-0.19,0.76-0.2,1.16c-0.11,3.87-0.22,7.75-0.33,11.62"/>
		<g>
			<path class="st9" d="M463.09,23.5c2.97,0.69,9.92,2.53,11.57-1.21c0.91-2.06-0.24-4.73-0.32-6.85c-0.09-2.21,0.83-5.86-0.31-7.85
				c-1.36-2.36-8.32-3.03-10.42-1.44c-1.48,1.12-1.29,3.05-1.33,4.7c-0.09,3.29-0.19,6.58-0.28,9.88c-0.06,2.09,3.19,2.09,3.25,0
				c0.09-3.1,0.18-6.2,0.26-9.29c0.04-1.46-0.36-2.49,1.14-2.73c1.61-0.25,4.11,0.19,4.48,1.75c0.6,2.52-0.14,5.53,0.28,8.15
				c0.34,2.11,0.56,2.49-1.7,2.48c-1.95-0.01-3.85-0.29-5.75-0.72C461.91,19.9,461.05,23.03,463.09,23.5L463.09,23.5z"/>
		</g>
	</g>
	<g>
		<path class="st9" d="M468.58,38.7c-1.34-0.53-3,0.25-3.55,1.68c-0.16,0.43-0.24,0.89-0.19,1.35c0.09,0.93,0.65,1.76,1.38,2.27
			s1.61,0.7,2.47,0.71c0.56,0.01,1.14-0.06,1.62-0.38c0.61-0.4,0.97-1.17,1.03-1.94c0.06-0.77-0.14-1.55-0.45-2.25
			c-0.18-0.42-0.42-0.82-0.77-1.08c-0.59-0.43-1.36-0.36-2.07-0.27"/>
		<g>
			<path class="st9" d="M469.01,37.14c-2.43-0.78-5.09,0.77-5.69,3.25c-0.69,2.88,1.52,5.39,4.28,5.84c2.91,0.47,5.44-1.19,5.37-4.3
				c-0.07-2.89-1.97-5.1-4.92-4.76c-2.05,0.23-2.08,3.49,0,3.25c1.01-0.11,1.33-0.02,1.58,1.03c0.31,1.32-0.31,1.84-1.59,1.57
				c-0.91-0.19-1.85-0.91-1.52-1.95c0.24-0.75,0.93-1.02,1.63-0.8C470.14,40.91,471,37.77,469.01,37.14L469.01,37.14z"/>
		</g>
	</g>
	<g>
		<path class="st9" d="M468.21,24.58c0,0.82,0,1.63,0,2.45"/>
		<g>
			<path class="st9" d="M466.58,24.58c0,0.82,0,1.63,0,2.45c0,0.85,0.75,1.66,1.63,1.63c0.88-0.04,1.63-0.71,1.63-1.63
				c0-0.82,0-1.63,0-2.45c0-0.85-0.75-1.66-1.63-1.63C467.33,22.99,466.58,23.67,466.58,24.58L466.58,24.58z"/>
		</g>
	</g>
	<g>
		<g>
			<path class="st9" d="M474.82,48.41c-1.95,3.4-5.95,4.51-9.14,2.32c-2.5-1.72-4.64-3.83-6.57-6.16c-1.33-1.61-3.62,0.7-2.3,2.3
				c2.61,3.16,6.87,7.91,11.22,8.48c3.72,0.49,7.81-2.18,9.6-5.3C478.67,48.23,475.86,46.59,474.82,48.41L474.82,48.41z"/>
		</g>
	</g>
</g>
</svg>
